<svg width="64" height="64" viewBox="0 0 64 64" fill="none" xmlns="http://www.w3.org/2000/svg">
<g id="Instagram">
<g id="Combined Shape">
<path fill-rule="evenodd" clip-rule="evenodd" d="M32 2C15.4315 2 2 15.4315 2 32C2 48.5685 15.4315 62 32 62C48.5685 62 62 48.5685 62 32C62 15.4315 48.5685 2 32 2ZM25.4041 16.0967C27.1108 16.019 27.6561 16 32.0015 16H31.9965C36.3432 16 36.8866 16.019 38.5932 16.0967C40.2966 16.1747 41.4599 16.4443 42.4799 16.84C43.5333 17.2483 44.4233 17.795 45.3133 18.685C46.2033 19.5744 46.75 20.467 47.16 21.5194C47.5533 22.5367 47.8233 23.6994 47.9033 25.4028C47.98 27.1094 48 27.6548 48 32.0002C48 36.3455 47.98 36.8895 47.9033 38.5962C47.8233 40.2989 47.5533 41.4619 47.16 42.4796C46.75 43.5316 46.2033 44.4243 45.3133 45.3136C44.4243 46.2036 43.533 46.7517 42.4809 47.1603C41.4629 47.556 40.2989 47.8257 38.5956 47.9037C36.8889 47.9813 36.3452 48.0003 31.9995 48.0003C27.6545 48.0003 27.1094 47.9813 25.4028 47.9037C23.6997 47.8257 22.5367 47.556 21.5187 47.1603C20.467 46.7517 19.5744 46.2036 18.6854 45.3136C17.7957 44.4243 17.249 43.5316 16.84 42.4793C16.4447 41.4619 16.175 40.2993 16.0967 38.5959C16.0193 36.8892 16 36.3455 16 32.0002C16 27.6548 16.02 27.1091 16.0963 25.4024C16.173 23.6997 16.443 22.5367 16.8397 21.5191C17.2497 20.467 17.7964 19.5744 18.6864 18.685C19.5757 17.7954 20.4684 17.2487 21.5207 16.84C22.5381 16.4443 23.7007 16.1747 25.4041 16.0967Z" fill="white"/>
<path d="M25.4041 16.0967L25.3586 15.0977L25.3584 15.0977L25.4041 16.0967ZM38.5932 16.0967L38.639 15.0977L38.6387 15.0977L38.5932 16.0967ZM42.4799 16.84L42.1183 17.7723L42.1185 17.7724L42.4799 16.84ZM45.3133 18.685L44.6062 19.3921L44.6065 19.3924L45.3133 18.685ZM47.16 21.5194L48.0927 21.1588L48.0918 21.1564L47.16 21.5194ZM47.9033 25.4028L48.9023 25.3579L48.9022 25.3558L47.9033 25.4028ZM47.9033 38.5962L48.9022 38.6432L48.9023 38.6411L47.9033 38.5962ZM47.16 42.4796L48.0917 42.8427L48.0927 42.8401L47.16 42.4796ZM45.3133 45.3136L44.6065 44.6063L44.6058 44.6069L45.3133 45.3136ZM42.4809 47.1603L42.1188 46.2282L42.1187 46.2282L42.4809 47.1603ZM38.5956 47.9037L38.641 48.9026L38.6413 48.9026L38.5956 47.9037ZM25.4028 47.9037L25.357 48.9026L25.3573 48.9026L25.4028 47.9037ZM21.5187 47.1603L21.881 46.2282L21.8809 46.2282L21.5187 47.1603ZM18.6854 45.3136L19.3929 44.6069L19.3923 44.6064L18.6854 45.3136ZM16.84 42.4793L15.9079 42.8415L15.9079 42.8415L16.84 42.4793ZM16.0967 38.5959L15.0977 38.6412L15.0977 38.6418L16.0967 38.5959ZM16.0963 25.4024L15.0973 25.3574L15.0973 25.3577L16.0963 25.4024ZM16.8397 21.5191L17.7714 21.8822L17.7714 21.8822L16.8397 21.5191ZM18.6864 18.685L19.3932 19.3924L19.3936 19.392L18.6864 18.685ZM21.5207 16.84L21.8827 17.7722L21.8832 17.772L21.5207 16.84ZM3 32C3 15.9837 15.9837 3 32 3V1C14.8792 1 1 14.8792 1 32H3ZM32 61C15.9837 61 3 48.0163 3 32H1C1 49.1208 14.8792 63 32 63V61ZM61 32C61 48.0163 48.0163 61 32 61V63C49.1208 63 63 49.1208 63 32H61ZM32 3C48.0163 3 61 15.9837 61 32H63C63 14.8792 49.1208 1 32 1V3ZM32.0015 15C27.6509 15 27.0879 15.019 25.3586 15.0977L25.4496 17.0956C27.1336 17.019 27.6613 17 32.0015 17V15ZM31.9965 17H32.0015V15H31.9965V17ZM38.6387 15.0977C36.9094 15.019 36.3484 15 31.9965 15V17C36.338 17 36.8637 17.019 38.5478 17.0956L38.6387 15.0977ZM42.8416 15.9077C41.7085 15.4681 40.4367 15.18 38.639 15.0977L38.5475 17.0956C40.1564 17.1693 41.2114 17.4205 42.1183 17.7723L42.8416 15.9077ZM46.0204 17.9779C45.0258 16.9833 44.0158 16.3629 42.8414 15.9076L42.1185 17.7724C43.0508 18.1338 43.8208 18.6067 44.6062 19.3921L46.0204 17.9779ZM48.0918 21.1564C47.6354 19.985 47.0156 18.9723 46.0201 17.9777L44.6065 19.3924C45.3911 20.1764 45.8646 20.9491 46.2282 21.8824L48.0918 21.1564ZM48.9022 25.3558C48.8178 23.5586 48.5294 22.2884 48.0927 21.1588L46.2273 21.88C46.5772 22.7851 46.8288 23.8402 46.9044 25.4497L48.9022 25.3558ZM49 32.0002C49 27.6491 48.98 27.0866 48.9023 25.3579L46.9043 25.4476C46.98 27.1323 47 27.6605 47 32.0002H49ZM48.9023 38.6411C48.98 36.9124 49 36.3513 49 32.0002H47C47 36.3398 46.98 36.8667 46.9043 38.5514L48.9023 38.6411ZM48.0927 42.8401C48.5294 41.7103 48.8178 40.4398 48.9022 38.6432L46.9044 38.5493C46.8288 40.1581 46.5772 41.2136 46.2272 42.1191L48.0927 42.8401ZM46.0201 46.021C47.0156 45.0264 47.6354 44.0137 48.0917 42.8427L46.2282 42.1165C45.8646 43.0495 45.3911 43.8222 44.6065 44.6063L46.0201 46.021ZM42.843 48.0925C44.0159 47.6368 45.0272 47.0151 46.0208 46.0203L44.6058 44.6069C43.8214 45.3922 43.05 45.8665 42.1188 46.2282L42.843 48.0925ZM38.6413 48.9026C40.4389 48.8203 41.7115 48.5322 42.8432 48.0924L42.1187 46.2282C41.2143 46.5797 40.159 46.831 38.5498 46.9047L38.6413 48.9026ZM31.9995 49.0003C36.3504 49.0003 36.9117 48.9813 38.641 48.9026L38.5501 46.9047C36.866 46.9813 36.34 47.0003 31.9995 47.0003V49.0003ZM25.3573 48.9026C27.0866 48.9813 27.6493 49.0003 31.9995 49.0003V47.0003C27.6596 47.0003 27.1323 46.9813 25.4482 46.9047L25.3573 48.9026ZM21.1565 48.0924C22.288 48.5322 23.5597 48.8203 25.357 48.9026L25.4485 46.9047C23.8398 46.831 22.7854 46.5798 21.881 46.2282L21.1565 48.0924ZM17.9779 46.0203C18.9718 47.0154 19.9845 47.637 21.1565 48.0924L21.8809 46.2282C20.9496 45.8663 20.177 45.3919 19.3929 44.6069L17.9779 46.0203ZM15.9079 42.8415C16.3634 44.0135 16.9834 45.0263 17.9784 46.0209L19.3923 44.6064C18.608 43.8223 18.1346 43.0497 17.7721 42.117L15.9079 42.8415ZM15.0977 38.6418C15.1804 40.4394 15.4685 41.7106 15.9079 42.8415L17.7721 42.1171C17.4209 41.2132 17.1696 40.1591 17.0956 38.55L15.0977 38.6418ZM15 32.0002C15 36.3509 15.0193 36.9121 15.0977 38.6412L17.0956 38.5506C17.0193 36.8663 17 36.3402 17 32.0002H15ZM15.0973 25.3577C15.02 27.0863 15 27.6491 15 32.0002H17C17 27.6605 17.02 27.1319 17.0953 25.4471L15.0973 25.3577ZM15.908 21.1559C15.4668 22.2876 15.1783 23.5599 15.0973 25.3574L17.0953 25.4474C17.1677 23.8396 17.4192 22.7858 17.7714 21.8822L15.908 21.1559ZM17.9795 17.9777C16.9841 18.9723 16.3643 19.9849 15.9079 21.1559L17.7714 21.8822C18.135 20.9492 18.6086 20.1764 19.3932 19.3924L17.9795 17.9777ZM21.1587 15.9078C19.9866 16.363 18.9737 16.9831 17.9791 17.9781L19.3936 19.392C20.1777 18.6076 20.9502 18.1343 21.8827 17.7722L21.1587 15.9078ZM25.3584 15.0977C23.5607 15.18 22.2893 15.4681 21.1582 15.908L21.8832 17.772C22.7868 17.4206 23.8408 17.1693 25.4498 17.0956L25.3584 15.0977Z" fill="black"/>
</g>
<g id="Combined Shape_2">
<path fill-rule="evenodd" clip-rule="evenodd" d="M30.5662 18.8834C30.8449 18.883 31.1447 18.8831 31.4683 18.8832L32.0016 18.8834C36.2736 18.8834 36.78 18.8987 38.467 18.9754C40.027 19.0467 40.8737 19.3074 41.4377 19.5264C42.1843 19.8164 42.7167 20.1631 43.2764 20.7231C43.8364 21.2831 44.183 21.8164 44.4737 22.5631C44.6927 23.1264 44.9537 23.9731 45.0247 25.5331C45.1014 27.2198 45.118 27.7265 45.118 31.9965C45.118 36.2666 45.1014 36.7732 45.0247 38.4599C44.9534 40.0199 44.6927 40.8666 44.4737 41.43C44.1837 42.1766 43.8364 42.7083 43.2764 43.268C42.7163 43.828 42.1847 44.1747 41.4377 44.4647C40.8743 44.6847 40.027 44.9447 38.467 45.016C36.7803 45.0927 36.2736 45.1093 32.0016 45.1093C27.7292 45.1093 27.2229 45.0927 25.5362 45.016C23.9762 44.944 23.1295 44.6833 22.5651 44.4643C21.8185 44.1743 21.2851 43.8277 20.7251 43.2676C20.1651 42.7076 19.8184 42.1756 19.5278 41.4286C19.3088 40.8653 19.0478 40.0186 18.9768 38.4586C18.9001 36.7719 18.8848 36.2652 18.8848 31.9925C18.8848 27.7198 18.9001 27.2158 18.9768 25.5291C19.0481 23.9691 19.3088 23.1224 19.5278 22.5584C19.8178 21.8118 20.1651 21.2784 20.7251 20.7184C21.2851 20.1584 21.8185 19.8117 22.5651 19.5211C23.1291 19.3011 23.9762 19.0411 25.5362 18.9694C27.0122 18.9027 27.5842 18.8827 30.5662 18.8794V18.8834ZM40.5423 21.5401C39.4823 21.5401 38.6223 22.3991 38.6223 23.4594C38.6223 24.5195 39.4823 25.3795 40.5423 25.3795C41.6023 25.3795 42.4623 24.5195 42.4623 23.4594C42.4623 22.3994 41.6023 21.5394 40.5423 21.5394V21.5401ZM23.7848 32.0002C23.7848 27.4626 27.4637 23.7836 32.0012 23.7834C36.5389 23.7834 40.217 27.4625 40.217 32.0002C40.217 36.5379 36.5393 40.2153 32.0016 40.2153C27.4639 40.2153 23.7848 36.5379 23.7848 32.0002Z" fill="white"/>
<path d="M31.4683 18.8832L31.4678 19.8832L31.468 19.8832L31.4683 18.8832ZM30.5662 18.8834H29.5662V19.885L30.5678 19.8834L30.5662 18.8834ZM32.0016 18.8834L32.0013 19.8834H32.0016V18.8834ZM38.467 18.9754L38.5126 17.9764L38.5124 17.9764L38.467 18.9754ZM41.4377 19.5264L41.7997 18.5942L41.7996 18.5942L41.4377 19.5264ZM43.2764 20.7231L42.569 21.43L42.5692 21.4302L43.2764 20.7231ZM44.4737 22.5631L45.4057 22.2008L45.4056 22.2003L44.4737 22.5631ZM45.0247 25.5331L46.0237 25.4877L46.0237 25.4877L45.0247 25.5331ZM45.0247 38.4599L46.0237 38.5056L46.0237 38.5053L45.0247 38.4599ZM44.4737 41.43L43.5417 41.0676L43.5415 41.0679L44.4737 41.43ZM43.2764 43.268L42.5695 42.5607L42.5692 42.5609L43.2764 43.268ZM41.4377 44.4647L41.0758 43.5324L41.0739 43.5332L41.4377 44.4647ZM38.467 45.016L38.5124 46.015L38.5126 46.015L38.467 45.016ZM25.5362 45.016L25.4901 46.0149L25.4908 46.015L25.5362 45.016ZM22.5651 44.4643L22.2031 45.3965L22.2034 45.3966L22.5651 44.4643ZM19.5278 41.4286L18.5957 41.791L18.5958 41.7913L19.5278 41.4286ZM18.9768 38.4586L17.9778 38.504L17.9778 38.5041L18.9768 38.4586ZM18.9768 25.5291L17.9778 25.4835L17.9778 25.4837L18.9768 25.5291ZM19.5278 22.5584L18.5956 22.1964L18.5956 22.1965L19.5278 22.5584ZM22.5651 19.5211L22.9279 20.4529L22.9285 20.4527L22.5651 19.5211ZM25.5362 18.9694L25.491 17.9704L25.4903 17.9704L25.5362 18.9694ZM30.5662 18.8794H31.5662V17.8783L30.5651 17.8794L30.5662 18.8794ZM40.5423 21.5401V22.5401H41.5423V21.5401H40.5423ZM40.5423 21.5394V20.5394H39.5423V21.5394H40.5423ZM32.0012 23.7834L32.0012 22.7834L32.0012 22.7834L32.0012 23.7834ZM31.4687 17.8832C31.1454 17.8831 30.8446 17.883 30.5647 17.8834L30.5678 19.8834C30.8453 19.883 31.1441 19.8831 31.4678 19.8832L31.4687 17.8832ZM32.0019 17.8834L31.4686 17.8832L31.468 19.8832L32.0013 19.8834L32.0019 17.8834ZM38.5124 17.9764C36.8021 17.8987 36.2774 17.8834 32.0016 17.8834V19.8834C36.2698 19.8834 36.7579 19.8988 38.4216 19.9744L38.5124 17.9764ZM41.7996 18.5942C41.1364 18.3367 40.183 18.0528 38.5126 17.9764L38.4213 19.9744C39.871 20.0406 40.6109 20.2781 41.0757 20.4586L41.7996 18.5942ZM43.9837 20.0162C43.3248 19.3569 42.6745 18.934 41.7997 18.5942L41.0756 20.4586C41.6942 20.6988 42.1086 20.9692 42.569 21.43L43.9837 20.0162ZM45.4056 22.2003C45.0654 21.3265 44.6429 20.6754 43.9835 20.016L42.5692 21.4302C43.0298 21.8907 43.3006 22.3063 43.5418 22.9259L45.4056 22.2003ZM46.0237 25.4877C45.9476 23.8171 45.6634 22.8635 45.4057 22.2008L43.5417 22.9254C43.722 23.3894 43.9598 24.1291 44.0257 25.5786L46.0237 25.4877ZM46.118 31.9965C46.118 27.722 46.1014 27.1974 46.0237 25.4877L44.0257 25.5785C44.1014 27.2423 44.118 27.731 44.118 31.9965H46.118ZM46.0237 38.5053C46.1014 36.7957 46.118 36.2711 46.118 31.9965H44.118C44.118 36.2621 44.1014 36.7508 44.0257 38.4145L46.0237 38.5053ZM45.4057 41.7923C45.6635 41.1294 45.9473 40.1759 46.0237 38.5056L44.0257 38.4143C43.9595 39.864 43.7219 40.6039 43.5417 41.0676L45.4057 41.7923ZM43.9833 43.9753C44.6419 43.317 45.0658 42.6677 45.4059 41.792L43.5415 41.0679C43.3016 41.6856 43.0308 42.0996 42.5695 42.5607L43.9833 43.9753ZM41.7996 45.3969C42.6751 45.057 43.3246 44.634 43.9835 43.9751L42.5692 42.5609C42.1081 43.022 41.6942 43.2923 41.0758 43.5324L41.7996 45.3969ZM38.5126 46.015C40.1822 45.9386 41.1369 45.6557 41.8014 45.3961L41.0739 43.5332C40.6117 43.7137 39.8718 43.9507 38.4213 44.017L38.5126 46.015ZM32.0016 46.1093C36.2781 46.1093 36.8027 46.0927 38.5124 46.015L38.4216 44.017C36.7578 44.0927 36.2691 44.1093 32.0016 44.1093V46.1093ZM25.4908 46.015C27.2004 46.0927 27.7247 46.1093 32.0016 46.1093V44.1093C27.7337 44.1093 27.2453 44.0927 25.5816 44.017L25.4908 46.015ZM22.2034 45.3966C22.8667 45.654 23.8199 45.9379 25.4901 46.0149L25.5823 44.0171C24.1324 43.9501 23.3922 43.7126 22.9269 43.5321L22.2034 45.3966ZM20.018 43.9748C20.6775 44.6342 21.3288 45.0569 22.2031 45.3965L22.9272 43.5322C22.3082 43.2917 21.8928 43.0211 21.4322 42.5605L20.018 43.9748ZM18.5958 41.7913C18.9363 42.6661 19.359 43.3158 20.018 43.9748L21.4322 42.5605C20.9712 42.0995 20.7006 41.6851 20.4597 41.066L18.5958 41.7913ZM17.9778 38.5041C18.0538 40.1747 18.3381 41.1282 18.5957 41.791L20.4598 41.0663C20.2795 40.6023 20.0417 39.8626 19.9757 38.4131L17.9778 38.5041ZM17.8848 31.9925C17.8848 36.269 17.9001 36.794 17.9778 38.504L19.9757 38.4132C19.9001 36.7498 19.8848 36.2614 19.8848 31.9925H17.8848ZM17.9778 25.4837C17.9001 27.1937 17.8848 27.716 17.8848 31.9925H19.8848C19.8848 27.7236 19.9001 27.2379 19.9757 25.5745L17.9778 25.4837ZM18.5956 22.1965C18.338 22.8597 18.0542 23.8131 17.9778 25.4835L19.9757 25.5748C20.042 24.1251 20.2795 23.3852 20.46 22.9204L18.5956 22.1965ZM20.018 20.0113C19.3589 20.6704 18.9354 21.3215 18.5956 22.1964L20.4599 22.9205C20.7002 22.302 20.9713 21.8864 21.4322 21.4255L20.018 20.0113ZM22.2024 18.5892C21.3286 18.9294 20.6775 19.3518 20.018 20.0113L21.4322 21.4255C21.8928 20.965 22.3084 20.6941 22.9279 20.4529L22.2024 18.5892ZM25.4903 17.9704C23.8207 18.0471 22.8665 18.3301 22.2017 18.5894L22.9285 20.4527C23.3918 20.272 24.1316 20.035 25.5821 19.9683L25.4903 17.9704ZM30.5651 17.8794C27.5734 17.8827 26.986 17.9029 25.491 17.9704L25.5813 19.9684C27.0384 19.9026 27.595 19.8827 30.5673 19.8794L30.5651 17.8794ZM31.5662 18.8834V18.8794H29.5662V18.8834H31.5662ZM39.6223 23.4594C39.6223 22.9519 40.034 22.5401 40.5423 22.5401V20.5401C38.9306 20.5401 37.6223 21.8462 37.6223 23.4594H39.6223ZM40.5423 24.3795C40.0346 24.3795 39.6223 23.9672 39.6223 23.4594H37.6223C37.6223 25.0717 38.93 26.3795 40.5423 26.3795V24.3795ZM41.4623 23.4594C41.4623 23.9672 41.0501 24.3795 40.5423 24.3795V26.3795C42.1546 26.3795 43.4623 25.0717 43.4623 23.4594H41.4623ZM40.5423 22.5394C41.0501 22.5394 41.4623 22.9517 41.4623 23.4594H43.4623C43.4623 21.8471 42.1546 20.5394 40.5423 20.5394V22.5394ZM41.5423 21.5401V21.5394H39.5423V21.5401H41.5423ZM32.0012 22.7834C26.9114 22.7836 22.7848 26.9103 22.7848 32.0002H24.7848C24.7848 28.0149 28.016 24.7836 32.0013 24.7834L32.0012 22.7834ZM41.217 32.0002C41.217 26.9104 37.0914 22.7834 32.0012 22.7834V24.7834C35.9865 24.7834 39.217 28.0146 39.217 32.0002H41.217ZM32.0016 41.2153C37.0915 41.2153 41.217 37.0903 41.217 32.0002H39.217C39.217 35.9856 35.9871 39.2153 32.0016 39.2153V41.2153ZM22.7848 32.0002C22.7848 37.0905 26.9118 41.2153 32.0016 41.2153V39.2153C28.0159 39.2153 24.7848 35.9854 24.7848 32.0002H22.7848Z" fill="black"/>
</g>
<path id="Shape" fill-rule="evenodd" clip-rule="evenodd" d="M32.0016 26.667C34.947 26.667 37.335 29.0547 37.335 32.0004C37.335 34.9457 34.947 37.3338 32.0016 37.3338C29.0559 37.3338 26.6682 34.9457 26.6682 32.0004C26.6682 29.0547 29.0559 26.667 32.0016 26.667V26.667Z" fill="white" stroke="black"/>
</g>
</svg>
