<svg width="32" height="32" viewBox="0 0 32 32" fill="none" xmlns="http://www.w3.org/2000/svg">
<g id="Instagram">
<g id="Combined Shape">
<path fill-rule="evenodd" clip-rule="evenodd" d="M16 1C7.71573 1 1 7.71573 1 16C1 24.2843 7.71573 31 16 31C24.2843 31 31 24.2843 31 16C31 7.71573 24.2843 1 16 1ZM12.702 8.04833C13.5554 8.0095 13.8281 8 16.0007 8H15.9983C18.1716 8 18.4433 8.0095 19.2966 8.04833C20.1483 8.08733 20.73 8.22217 21.24 8.42C21.7666 8.62417 22.2116 8.89751 22.6567 9.34251C23.1017 9.78719 23.375 10.2335 23.58 10.7597C23.7767 11.2684 23.9117 11.8497 23.9517 12.7014C23.99 13.5547 24 13.8274 24 16.0001C24 18.1728 23.99 18.4448 23.9517 19.2981C23.9117 20.1495 23.7767 20.731 23.58 21.2398C23.375 21.7658 23.1017 22.2121 22.6567 22.6568C22.2121 23.1018 21.7665 23.3758 21.2405 23.5802C20.7315 23.778 20.1495 23.9128 19.2978 23.9518C18.4444 23.9907 18.1726 24.0002 15.9998 24.0002C13.8272 24.0002 13.5547 23.9907 12.7014 23.9518C11.8499 23.9128 11.2684 23.778 10.7594 23.5802C10.2335 23.3758 9.78719 23.1018 9.34268 22.6568C8.89784 22.2121 8.62451 21.7658 8.42 21.2396C8.22234 20.731 8.0875 20.1496 8.04833 19.298C8.00967 18.4446 8 18.1728 8 16.0001C8 13.8274 8.01 13.5546 8.04817 12.7012C8.0865 11.8499 8.2215 11.2684 8.41984 10.7595C8.62484 10.2335 8.89818 9.78719 9.34318 9.34251C9.78785 8.89768 10.2342 8.62434 10.7604 8.42C11.269 8.22217 11.8504 8.08733 12.702 8.04833Z" fill="white"/>
<path d="M12.702 8.04833L12.6793 7.54885L12.6792 7.54886L12.702 8.04833ZM19.2966 8.04833L19.3195 7.54886L19.3193 7.54885L19.2966 8.04833ZM21.24 8.42L21.0591 8.88616L21.0592 8.8862L21.24 8.42ZM22.6567 9.34251L22.3031 9.69607L22.3032 9.6962L22.6567 9.34251ZM23.58 10.7597L24.0464 10.5794L24.0459 10.5782L23.58 10.7597ZM23.9517 12.7014L24.4512 12.6789L24.4511 12.6779L23.9517 12.7014ZM23.9517 19.2981L24.4511 19.3216L24.4512 19.3206L23.9517 19.2981ZM23.58 21.2398L24.0459 21.4214L24.0464 21.4201L23.58 21.2398ZM22.6567 22.6568L22.3032 22.3031L22.3029 22.3035L22.6567 22.6568ZM21.2405 23.5802L21.0594 23.1141L21.0593 23.1141L21.2405 23.5802ZM19.2978 23.9518L19.3205 24.4513L19.3207 24.4513L19.2978 23.9518ZM12.7014 23.9518L12.6785 24.4513L12.6787 24.4513L12.7014 23.9518ZM10.7594 23.5802L10.9405 23.1141L10.9405 23.1141L10.7594 23.5802ZM9.34268 22.6568L9.69643 22.3035L9.69617 22.3032L9.34268 22.6568ZM8.42 21.2396L7.95396 21.4207L7.95397 21.4208L8.42 21.2396ZM8.04833 19.298L7.54885 19.3206L7.54886 19.3209L8.04833 19.298ZM8.04817 12.7012L7.54867 12.6787L7.54867 12.6789L8.04817 12.7012ZM8.41984 10.7595L8.8857 10.9411L8.88571 10.9411L8.41984 10.7595ZM9.34318 9.34251L9.6966 9.6962L9.6968 9.696L9.34318 9.34251ZM10.7604 8.42L10.9414 8.88609L10.9416 8.886L10.7604 8.42ZM1.5 16C1.5 7.99187 7.99187 1.5 16 1.5V0.5C7.43959 0.5 0.5 7.43959 0.5 16H1.5ZM16 30.5C7.99187 30.5 1.5 24.0081 1.5 16H0.5C0.5 24.5604 7.43959 31.5 16 31.5V30.5ZM30.5 16C30.5 24.0081 24.0081 30.5 16 30.5V31.5C24.5604 31.5 31.5 24.5604 31.5 16H30.5ZM16 1.5C24.0081 1.5 30.5 7.99187 30.5 16H31.5C31.5 7.43959 24.5604 0.5 16 0.5V1.5ZM16.0007 7.5C13.8255 7.5 13.544 7.5095 12.6793 7.54885L12.7248 8.54782C13.5668 8.5095 13.8306 8.5 16.0007 8.5V7.5ZM15.9983 8.5H16.0007V7.5H15.9983V8.5ZM19.3193 7.54885C18.4547 7.5095 18.1742 7.5 15.9983 7.5V8.5C18.169 8.5 18.4318 8.5095 19.2739 8.54782L19.3193 7.54885ZM21.4208 7.95385C20.8542 7.73407 20.2184 7.59002 19.3195 7.54886L19.2737 8.54781C20.0782 8.58465 20.6057 8.71027 21.0591 8.88616L21.4208 7.95385ZM23.0102 8.98896C22.5129 8.49166 22.0079 8.18144 21.4207 7.95381L21.0592 8.8862C21.5254 9.0669 21.9104 9.30336 22.3031 9.69607L23.0102 8.98896ZM24.0459 10.5782C23.8177 9.99249 23.5078 9.48616 23.0101 8.98883L22.3032 9.6962C22.6955 10.0882 22.9323 10.4746 23.1141 10.9412L24.0459 10.5782ZM24.4511 12.6779C24.4089 11.7793 24.2647 11.1442 24.0464 10.5794L23.1136 10.94C23.2886 11.3926 23.4144 11.9201 23.4522 12.7248L24.4511 12.6779ZM24.5 16.0001C24.5 13.8245 24.49 13.5433 24.4512 12.6789L23.4522 12.7238C23.49 13.5662 23.5 13.8302 23.5 16.0001H24.5ZM24.4512 19.3206C24.49 18.4562 24.5 18.1756 24.5 16.0001H23.5C23.5 18.1699 23.49 18.4333 23.4522 19.2757L24.4512 19.3206ZM24.0464 21.4201C24.2647 20.8551 24.4089 20.2199 24.4511 19.3216L23.4522 19.2747C23.4144 20.079 23.2886 20.6068 23.1136 21.0595L24.0464 21.4201ZM23.0101 23.0105C23.5078 22.5132 23.8177 22.0069 24.0459 21.4214L23.1141 21.0582C22.9323 21.5248 22.6955 21.9111 22.3032 22.3031L23.0101 23.0105ZM21.4215 24.0462C22.008 23.8184 22.5136 23.5075 23.0104 23.0102L22.3029 22.3035C21.9107 22.6961 21.525 22.9332 21.0594 23.1141L21.4215 24.0462ZM19.3207 24.4513C20.2194 24.4102 20.8558 24.2661 21.4216 24.0462L21.0593 23.1141C20.6072 23.2899 20.0795 23.4155 19.2749 23.4524L19.3207 24.4513ZM15.9998 24.5002C18.1752 24.5002 18.4559 24.4907 19.3205 24.4513L19.2751 23.4523C18.433 23.4907 18.17 23.5002 15.9998 23.5002V24.5002ZM12.6787 24.4513C13.5433 24.4907 13.8246 24.5002 15.9998 24.5002V23.5002C13.8298 23.5002 13.5662 23.4907 12.7241 23.4523L12.6787 24.4513ZM10.5782 24.0462C11.144 24.2661 11.7798 24.4101 12.6785 24.4513L12.7243 23.4524C11.9199 23.4155 11.3927 23.2899 10.9405 23.1141L10.5782 24.0462ZM8.98893 23.0102C9.48588 23.5077 9.99224 23.8185 10.5783 24.0462L10.9405 23.1141C10.4748 22.9332 10.0885 22.696 9.69643 22.3035L8.98893 23.0102ZM7.95397 21.4208C8.18171 22.0067 8.4917 22.5131 8.98919 23.0104L9.69617 22.3032C9.30398 21.9112 9.0673 21.5249 8.88604 21.0585L7.95397 21.4208ZM7.54886 19.3209C7.59019 20.2197 7.73423 20.8553 7.95396 21.4207L8.88605 21.0585C8.71044 20.6066 8.58481 20.0796 8.54781 19.275L7.54886 19.3209ZM7.5 16.0001C7.5 18.1755 7.50967 18.456 7.54885 19.3206L8.54782 19.2753C8.50966 18.4332 8.5 18.1701 8.5 16.0001H7.5ZM7.54867 12.6789C7.51001 13.5432 7.5 13.8245 7.5 16.0001H8.5C8.5 13.8303 8.50999 13.566 8.54767 12.7236L7.54867 12.6789ZM7.95398 10.5779C7.73341 11.1438 7.58914 11.7799 7.54867 12.6787L8.54766 12.7237C8.58386 11.9198 8.7096 11.3929 8.8857 10.9411L7.95398 10.5779ZM8.98976 8.98883C8.49206 9.48616 8.18216 9.99247 7.95397 10.578L8.88571 10.9411C9.06752 10.4746 9.30429 10.0882 9.6966 9.6962L8.98976 8.98883ZM10.5794 7.95392C9.99328 8.18152 9.48686 8.49154 8.98956 8.98903L9.6968 9.696C10.0888 9.30381 10.4751 9.06716 10.9414 8.88609L10.5794 7.95392ZM12.6792 7.54886C11.7804 7.59002 11.1447 7.73406 10.5791 7.95401L10.9416 8.886C11.3934 8.71028 11.9204 8.58465 12.7249 8.54781L12.6792 7.54886Z" fill="black"/>
</g>
<g id="Combined Shape_2">
<path fill-rule="evenodd" clip-rule="evenodd" d="M15.2831 9.4417C15.4225 9.44148 15.5724 9.44155 15.7341 9.44162L16.0008 9.4417C18.1368 9.4417 18.39 9.44936 19.2335 9.4877C20.0135 9.52336 20.4368 9.6537 20.7188 9.7632C21.0922 9.9082 21.3583 10.0815 21.6382 10.3615C21.9182 10.6415 22.0915 10.9082 22.2368 11.2815C22.3464 11.5632 22.4769 11.9866 22.5124 12.7666C22.5507 13.6099 22.559 13.8632 22.559 15.9983C22.559 18.1333 22.5507 18.3866 22.5124 19.23C22.4767 20.01 22.3464 20.4333 22.2368 20.715C22.0918 21.0883 21.9182 21.3542 21.6382 21.634C21.3582 21.914 21.0923 22.0873 20.7188 22.2323C20.4372 22.3423 20.0135 22.4723 19.2335 22.508C18.3901 22.5463 18.1368 22.5547 16.0008 22.5547C13.8646 22.5547 13.6114 22.5463 12.7681 22.508C11.9881 22.472 11.5647 22.3417 11.2826 22.2322C10.9092 22.0872 10.6426 21.9138 10.3626 21.6338C10.0826 21.3538 9.90922 21.0878 9.76389 20.7143C9.65439 20.4326 9.52388 20.0093 9.48838 19.2293C9.45005 18.386 9.44238 18.1326 9.44238 15.9963C9.44238 13.8599 9.45005 13.6079 9.48838 12.7646C9.52405 11.9846 9.65439 11.5612 9.76389 11.2792C9.90889 10.9059 10.0826 10.6392 10.3626 10.3592C10.6426 10.0792 10.9092 9.90587 11.2826 9.76053C11.5646 9.65053 11.9881 9.52053 12.7681 9.4847C13.5061 9.45136 13.7921 9.44136 15.2831 9.4397V9.4417ZM20.2712 10.77C19.7412 10.77 19.3112 11.1995 19.3112 11.7297C19.3112 12.2597 19.7412 12.6897 20.2712 12.6897C20.8012 12.6897 21.2312 12.2597 21.2312 11.7297C21.2312 11.1997 20.8012 10.7697 20.2712 10.7697V10.77ZM11.8924 16.0001C11.8924 13.7313 13.7318 11.8918 16.0006 11.8917C18.2695 11.8917 20.1085 13.7312 20.1085 16.0001C20.1085 18.269 18.2696 20.1076 16.0008 20.1076C13.7319 20.1076 11.8924 18.269 11.8924 16.0001Z" fill="white"/>
<path d="M15.7341 9.44162L15.7339 9.94162L15.734 9.94162L15.7341 9.44162ZM15.2831 9.4417H14.7831V9.94248L15.2839 9.9417L15.2831 9.4417ZM16.0008 9.4417L16.0006 9.9417H16.0008V9.4417ZM19.2335 9.4877L19.2563 8.98822L19.2562 8.98821L19.2335 9.4877ZM20.7188 9.7632L20.8999 9.29712L20.8998 9.29711L20.7188 9.7632ZM21.6382 10.3615L21.2845 10.715L21.2846 10.7151L21.6382 10.3615ZM22.2368 11.2815L22.7029 11.1004L22.7028 11.1002L22.2368 11.2815ZM22.5124 12.7666L23.0118 12.7439L23.0118 12.7438L22.5124 12.7666ZM22.5124 19.23L23.0118 19.2528L23.0118 19.2527L22.5124 19.23ZM22.2368 20.715L21.7708 20.5338L21.7708 20.534L22.2368 20.715ZM21.6382 21.634L21.2847 21.2803L21.2846 21.2804L21.6382 21.634ZM20.7188 22.2323L20.5379 21.7662L20.5369 21.7666L20.7188 22.2323ZM19.2335 22.508L19.2562 23.0075L19.2563 23.0075L19.2335 22.508ZM12.7681 22.508L12.745 23.0075L12.7454 23.0075L12.7681 22.508ZM11.2826 22.2322L11.1015 22.6982L11.1017 22.6983L11.2826 22.2322ZM9.76389 20.7143L9.29786 20.8955L9.29792 20.8956L9.76389 20.7143ZM9.48838 19.2293L8.9889 19.252L8.9889 19.252L9.48838 19.2293ZM9.48838 12.7646L8.98891 12.7417L8.9889 12.7419L9.48838 12.7646ZM9.76389 11.2792L9.29781 11.0982L9.29779 11.0982L9.76389 11.2792ZM11.2826 9.76053L11.464 10.2265L11.4643 10.2264L11.2826 9.76053ZM12.7681 9.4847L12.7455 8.98521L12.7451 8.98522L12.7681 9.4847ZM15.2831 9.4397H15.7831V8.93914L15.2826 8.9397L15.2831 9.4397ZM20.2712 10.77V11.27H20.7712V10.77H20.2712ZM20.2712 10.7697V10.2697H19.7712V10.7697H20.2712ZM16.0006 11.8917L16.0006 11.3917L16.0006 11.3917L16.0006 11.8917ZM15.7344 8.94162C15.5727 8.94155 15.4223 8.94148 15.2823 8.9417L15.2839 9.9417C15.4226 9.94148 15.572 9.94155 15.7339 9.94162L15.7344 8.94162ZM16.0009 8.9417L15.7343 8.94162L15.734 9.94162L16.0006 9.9417L16.0009 8.9417ZM19.2562 8.98821C18.401 8.94935 18.1387 8.9417 16.0008 8.9417V9.9417C18.1349 9.9417 18.3789 9.94938 19.2108 9.98718L19.2562 8.98821ZM20.8998 9.29711C20.5682 9.16833 20.0915 9.02641 19.2563 8.98822L19.2106 9.98718C19.9355 10.0203 20.3055 10.1391 20.5379 10.2293L20.8998 9.29711ZM21.9918 10.0081C21.6624 9.67845 21.3373 9.46701 20.8999 9.29712L20.5378 10.2293C20.8471 10.3494 21.0543 10.4846 21.2845 10.715L21.9918 10.0081ZM22.7028 11.1002C22.5327 10.6633 22.3215 10.3377 21.9917 10.008L21.2846 10.7151C21.5149 10.9454 21.6503 11.1532 21.7709 11.4629L22.7028 11.1002ZM23.0118 12.7438C22.9738 11.9085 22.8317 11.4317 22.7029 11.1004L21.7708 11.4627C21.861 11.6947 21.9799 12.0646 22.0129 12.7893L23.0118 12.7438ZM23.059 15.9983C23.059 13.861 23.0507 13.5987 23.0118 12.7439L22.0129 12.7893C22.0507 13.6211 22.059 13.8655 22.059 15.9983H23.059ZM23.0118 19.2527C23.0507 18.3979 23.059 18.1355 23.059 15.9983H22.059C22.059 18.131 22.0507 18.3754 22.0129 19.2073L23.0118 19.2527ZM22.7029 20.8962C22.8317 20.5647 22.9736 20.0879 23.0118 19.2528L22.0129 19.2071C21.9797 19.932 21.861 20.3019 21.7708 20.5338L22.7029 20.8962ZM21.9916 21.9876C22.3209 21.6585 22.5329 21.3338 22.7029 20.896L21.7708 20.534C21.6508 20.8428 21.5154 21.0498 21.2847 21.2803L21.9916 21.9876ZM20.8998 22.6984C21.3376 22.5285 21.6623 22.317 21.9917 21.9875L21.2846 21.2804C21.0541 21.511 20.8471 21.6462 20.5379 21.7662L20.8998 22.6984ZM19.2563 23.0075C20.0911 22.9693 20.5685 22.8278 20.9007 22.6981L20.5369 21.7666C20.3059 21.8568 19.9359 21.9754 19.2106 22.0085L19.2563 23.0075ZM16.0008 23.0547C18.139 23.0547 18.4014 23.0463 19.2562 23.0075L19.2108 22.0085C18.3789 22.0463 18.1346 22.0547 16.0008 22.0547V23.0547ZM12.7454 23.0075C13.6002 23.0463 13.8624 23.0547 16.0008 23.0547V22.0547C13.8668 22.0547 13.6227 22.0463 12.7908 22.0085L12.7454 23.0075ZM11.1017 22.6983C11.4334 22.827 11.9099 22.9689 12.745 23.0075L12.7911 22.0085C12.0662 21.9751 11.6961 21.8563 11.4635 21.766L11.1017 22.6983ZM10.009 21.9874C10.3387 22.3171 10.6644 22.5285 11.1015 22.6982L11.4636 21.7661C11.1541 21.6459 10.9464 21.5105 10.7161 21.2803L10.009 21.9874ZM9.29792 20.8956C9.46813 21.3331 9.67951 21.6579 10.009 21.9874L10.7161 21.2803C10.4856 21.0498 10.3503 20.8426 10.2299 20.533L9.29792 20.8956ZM8.9889 19.252C9.02692 20.0873 9.16904 20.5641 9.29786 20.8955L10.2299 20.5331C10.1397 20.3012 10.0209 19.9313 9.98787 19.2066L8.9889 19.252ZM8.94238 15.9963C8.94238 18.1345 8.95004 18.397 8.9889 19.252L9.98787 19.2066C9.95006 18.3749 9.94238 18.1307 9.94238 15.9963H8.94238ZM8.9889 12.7419C8.95004 13.5969 8.94238 13.858 8.94238 15.9963H9.94238C9.94238 13.8618 9.95006 13.619 9.98787 12.7873L8.9889 12.7419ZM9.29779 11.0982C9.16902 11.4299 9.02709 11.9066 8.98891 12.7417L9.98786 12.7874C10.021 12.0626 10.1397 11.6926 10.23 11.4602L9.29779 11.0982ZM10.009 10.0057C9.67946 10.3352 9.4677 10.6608 9.29781 11.0982L10.23 11.4602C10.3501 11.151 10.4856 10.9432 10.7161 10.7128L10.009 10.0057ZM11.1012 9.29459C10.6643 9.46468 10.3387 9.67592 10.009 10.0057L10.7161 10.7128C10.9464 10.4825 11.1542 10.3471 11.464 10.2265L11.1012 9.29459ZM12.7451 8.98522C11.9104 9.02357 11.4333 9.16506 11.1009 9.29472L11.4643 10.2264C11.6959 10.136 12.0658 10.0175 12.791 9.98417L12.7451 8.98522ZM15.2826 8.9397C13.7867 8.94137 13.493 8.95145 12.7455 8.98521L12.7906 9.98419C13.5192 9.95128 13.7975 9.94136 15.2837 9.9397L15.2826 8.9397ZM15.7831 9.4417V9.4397H14.7831V9.4417H15.7831ZM19.8112 11.7297C19.8112 11.476 20.017 11.27 20.2712 11.27V10.27C19.4653 10.27 18.8112 10.9231 18.8112 11.7297H19.8112ZM20.2712 12.1897C20.0173 12.1897 19.8112 11.9836 19.8112 11.7297H18.8112C18.8112 12.5359 19.465 13.1897 20.2712 13.1897V12.1897ZM20.7312 11.7297C20.7312 11.9836 20.525 12.1897 20.2712 12.1897V13.1897C21.0773 13.1897 21.7312 12.5359 21.7312 11.7297H20.7312ZM20.2712 11.2697C20.525 11.2697 20.7312 11.4759 20.7312 11.7297H21.7312C21.7312 10.9236 21.0773 10.2697 20.2712 10.2697V11.2697ZM20.7712 10.77V10.7697H19.7712V10.77H20.7712ZM16.0006 11.3917C13.4557 11.3918 11.3924 13.4552 11.3924 16.0001H12.3924C12.3924 14.0074 14.008 12.3918 16.0006 12.3917L16.0006 11.3917ZM20.6085 16.0001C20.6085 13.4552 18.5457 11.3917 16.0006 11.3917V12.3917C17.9933 12.3917 19.6085 14.0073 19.6085 16.0001H20.6085ZM16.0008 20.6076C18.5458 20.6076 20.6085 18.5451 20.6085 16.0001H19.6085C19.6085 17.9928 17.9935 19.6076 16.0008 19.6076V20.6076ZM11.3924 16.0001C11.3924 18.5452 13.4559 20.6076 16.0008 20.6076V19.6076C14.0079 19.6076 12.3924 17.9927 12.3924 16.0001H11.3924Z" fill="black"/>
</g>
<path id="Shape" fill-rule="evenodd" clip-rule="evenodd" d="M16.0008 13.3335C17.4735 13.3335 18.6675 14.5273 18.6675 16.0002C18.6675 17.4729 17.4735 18.6669 16.0008 18.6669C14.528 18.6669 13.3341 17.4729 13.3341 16.0002C13.3341 14.5273 14.528 13.3335 16.0008 13.3335V13.3335Z" fill="white" stroke="black"/>
</g>
</svg>
